<mxfile host="app.diagrams.net" modified="2024-01-03T03:10:45.683Z" agent="Mozilla/5.0 (X11; Linux x86_64) AppleWebKit/537.36 (KHTML, like Gecko) Chrome/119.0.0.0 Safari/537.36" version="22.1.16" etag="QRG7sYO_nrxQsNIW8xgF" type="github">
  <diagram name="第 1 页" id="i-Rfc57l8lHFG3Z0wRn-">
    <mxGraphModel>
      <root>
        <mxCell id="0" />
        <mxCell id="1" parent="0" />
      </root>
    </mxGraphModel>
  </diagram>
</mxfile>
